<?xml version="1.0" encoding="utf-8"?>
<!-- Generator: Adobe Illustrator 16.0.0, SVG Export Plug-In . SVG Version: 6.00 Build 0)  -->
<!DOCTYPE svg PUBLIC "-//W3C//DTD SVG 1.1//EN" "http://www.w3.org/Graphics/SVG/1.1/DTD/svg11.dtd">
<svg version="1.1" id="Laag_1" xmlns="http://www.w3.org/2000/svg" xmlns:xlink="http://www.w3.org/1999/xlink" x="0px" y="0px"
	 width="595.279px" height="839.059px" viewBox="0 0 595.279 839.059" enable-background="new 0 0 595.279 839.059"
	 xml:space="preserve">
<polygon fill="#FFFFFF" points="358.66,408.364 358.427,408.598 359.127,409.064 359.594,409.299 360.178,408.48 359.594,408.364 
	"/>
<polygon fill="#FFFFFF" points="363.797,408.248 363.331,408.48 363.797,409.299 365.082,408.598 364.265,408.132 "/>
<path fill="#FFFFFF" d="M337.408,413.035c0.117,2.335-0.816,5.37-3.27,7.589c0-0.115,0.116-0.231,0.116-0.348
	c0.702-1.751,0.936-3.738,0.702-5.606v-0.116c-0.468,0.232-0.934,0.468-1.401,0.7c0.35,2.687-0.7,5.838-2.686,7.006l-0.584-1.751
	c0.7-0.468,1.401-1.052,1.752-1.868c0.35-0.819,0.466-1.635,0.35-2.451c-0.468,0.232-0.934,0.464-1.401,0.584
	c0,0.348-0.116,0.816-0.234,1.167c-0.231,0.464-0.466,0.816-0.815,1.048l-0.584-1.984c-0.233,0.116-0.468,0.116-0.701,0.232
	c-0.234,0.119-0.468,0.119-0.7,0.235l0.116,0.349l0.468,1.635c-0.468,0-1.052-0.116-1.52-0.349c-0.35-0.235-0.7-0.468-0.934-0.819
	c-0.466,0.116-1.05,0.236-1.518,0.236c0.35,0.7,0.934,1.4,1.751,1.868c0.818,0.468,1.752,0.699,2.686,0.583l0.584,1.752
	c-2.335,0.232-4.904-1.867-6.188-4.203c-0.583,0.116-1.051,0.116-1.518,0.116v0.116c0.818,1.752,2.102,3.271,3.737,4.319
	c0.116,0.119,0.232,0.119,0.232,0.119c-3.27-0.468-5.721-2.455-7.006-4.322c-0.7,0-1.284,0-1.634,0
	c0.934,1.987,2.801,3.738,5.137,4.786c1.285,0.588,2.568,0.936,3.97,1.052c1.518,0.119,3.037,0,4.555-0.464
	c1.518-0.468,2.802-1.171,3.971-2.104c1.05-0.819,1.983-1.867,2.685-3.035c1.284-2.219,1.868-4.67,1.518-6.89
	C338.46,412.334,337.992,412.686,337.408,413.035"/>
<path fill="#FFFFFF" d="M332.972,413.734L332.972,413.734c0.468-0.232,0.934-0.464,1.283-0.7c-0.699-1.52-2.101-3.035-3.503-3.971
	c-0.231-0.232-0.583-0.348-0.815-0.466c3.385,0.118,6.071,1.751,7.006,2.917l0,0c0.466-0.348,0.934-0.583,1.167-0.816v-0.116
	c-0.468-0.584-1.051-1.168-1.869-1.636c-0.817-0.583-1.867-0.934-2.919-1.284c-1.751-0.584-4.554-0.934-7.705,0
	c-3.153,0.935-5.256,2.92-6.424,4.319c-0.7,0.819-1.283,1.751-1.634,2.687c-0.35,0.816-0.584,1.751-0.584,2.451v0.116
	c0.351,0,0.935,0,1.518,0l0,0c0.116-1.4,1.401-4.319,4.087-6.306c-0.116,0.235-0.35,0.583-0.468,0.935
	c-0.7,1.636-0.934,3.619-0.7,5.254c0.468,0,0.935-0.116,1.402-0.116l0,0c-0.351-2.567,0.699-5.954,2.685-7.122l1.985,6.306
	c0.234-0.119,0.468-0.119,0.7-0.235c0.233-0.116,0.468-0.116,0.701-0.232l-1.985-6.306
	C329.119,409.182,331.804,411.399,332.972,413.734"/>
<path fill="#FFFFFF" d="M330.286,412.451c0.466,0.468,0.466,1.052,0.116,1.403c-0.35,0.348-1.05,0.232-1.401-0.236
	c-0.466-0.467-0.466-1.051-0.116-1.4C329.236,411.867,329.937,411.983,330.286,412.451"/>
<path fill="#FFFFFF" d="M323.981,414.318c-0.116,0.583,0.234,1.167,0.7,1.167c0.468,0.119,0.936-0.348,1.052-0.932
	s-0.234-1.167-0.7-1.167C324.565,413.27,324.097,413.734,323.981,414.318"/>
<path fill="#FFFFFF" d="M323.047,425.878l0.584-0.584c0,0-1.285-0.349-3.153-0.349c-1.869,0-2.803,0.468-2.803,0.933
	c0,0.584,0.701,0.819,2.102,1.167c1.401,0.352,1.985,1.052,0,1.052c-1.518,0-1.752-0.232-1.752-0.232l-0.699,0.468
	c0,0,1.167,0.349,2.451,0.349c1.401,0,4.204,0,4.204-1.168c0-0.583-1.751-0.932-1.985-1.051c-0.233-0.116-1.283-0.116-1.283-0.584
	c0-0.232,0.815-0.232,1.167-0.232C322.23,425.646,323.047,425.878,323.047,425.878"/>
<path fill="#FFFFFF" d="M331.688,425.294l0.232,0.703c0,0-1.518-0.352-2.685-0.235c-0.935,0.116-1.752,0.584-1.636,1.052
	c0,0.583,0.701,1.751,3.152,1.051l-0.231-0.819h1.751l0.584,1.636h-1.636l-0.115-0.116c0,0-1.286,0.232-2.104,0.232
	c-0.816,0-3.503-0.349-3.619-1.983c0-1.284,2.803-1.752,3.854-1.752C329.937,425.062,331.688,425.294,331.688,425.294"/>
<path fill="#FFFFFF" d="M339.394,427.166c0,0,1.167-0.352,1.167-1.052s-1.518-0.936-2.101-0.936c-0.584,0-3.854,0-3.854,0v3.503
	h1.868v-1.284h1.167l1.052,1.284h2.218L339.394,427.166z M337.526,426.698h-1.167v-0.936h1.167
	C338.46,425.762,338.575,426.698,337.526,426.698"/>
<g>
	<path fill="#FFFFFF" d="M361.579,412.334V410c-0.583,0-1.285-0.116-1.869-0.352c-0.35,0.819-0.466,1.751-0.583,2.687H361.579z"/>
	<path fill="#FFFFFF" d="M366.834,412.334c0-1.403-0.702-2.687-1.636-3.619c-0.466,0.348-0.817,0.583-1.283,0.816
		c0.35,0.936,0.583,1.868,0.583,2.803H366.834z"/>
	<path fill="#FFFFFF" d="M361.579,414.902v-2.335h-2.335c0,0.119,0,0.352,0,0.468c0.116,0.819,0.232,1.519,0.466,2.219
		C360.294,415.021,360.996,414.902,361.579,414.902z"/>
	<path fill="#FFFFFF" d="M361.93,410v2.335h2.335c0-0.819-0.116-1.751-0.584-2.687C363.097,409.883,362.514,410,361.93,410z"/>
	<path fill="#FFFFFF" d="M363.331,408.48h1.634c-0.7-0.583-1.634-1.05-2.567-1.167C362.747,407.664,363.097,408.132,363.331,408.48z
		"/>
	<path fill="#FFFFFF" d="M362.398,417.589c1.05-0.116,1.983-0.584,2.685-1.167c-0.35-0.352-0.817-0.584-1.167-0.7
		C363.448,416.421,362.981,417.121,362.398,417.589z"/>
	<path fill="#FFFFFF" d="M359.594,415.605c-0.467,0.232-0.817,0.465-1.285,0.7c0.702,0.7,1.636,1.051,2.688,1.167
		C360.529,417.121,359.945,416.421,359.594,415.605z"/>
	<path fill="#FFFFFF" d="M361.93,414.902c0.584,0,1.167,0.12,1.867,0.352c0.234-0.7,0.468-1.399,0.468-2.219
		c0-0.116,0-0.349,0-0.468h-2.335V414.902z"/>
	<path fill="#FFFFFF" d="M359.477,415.37c-0.232-0.7-0.466-1.4-0.466-2.219c0-0.116,0-0.349,0-0.584h-2.336
		c0,1.403,0.584,2.687,1.518,3.622C358.543,415.837,359.011,415.605,359.477,415.37z"/>
	<path fill="#FFFFFF" d="M363.565,415.486c-0.584-0.232-1.167-0.348-1.751-0.348v2.335
		C362.629,417.121,363.213,416.421,363.565,415.486z"/>
	<path fill="#FFFFFF" d="M364.498,412.567c0,0.235,0,0.352,0,0.584c-0.117,0.819-0.233,1.635-0.467,2.219
		c0.467,0.235,0.934,0.468,1.285,0.819c0.934-0.936,1.518-2.219,1.634-3.622H364.498z"/>
	<path fill="#FFFFFF" d="M361.579,415.138c-0.583,0-1.167,0.116-1.751,0.348c0.466,0.936,1.05,1.635,1.751,1.987V415.138z"/>
	<path fill="#FFFFFF" d="M359.945,409.416c0.584,0.232,1.167,0.35,1.751,0.35v-2.335
		C360.878,407.897,360.294,408.598,359.945,409.416z"/>
	<path fill="#FFFFFF" d="M361.93,409.766c0.584,0,1.167-0.118,1.751-0.35c-0.35-0.817-0.934-1.518-1.751-2.102V409.766z"/>
	<path fill="#FFFFFF" d="M360.061,408.598c0.233-0.466,0.584-0.818,1.051-1.168c-1.051,0.117-1.984,0.584-2.685,1.168H360.061z"/>
	<path fill="#FFFFFF" d="M359.011,412.334c0-0.935,0.233-1.867,0.583-2.803c-0.467-0.232-0.934-0.468-1.285-0.816
		c-0.934,0.932-1.518,2.216-1.634,3.619H359.011z"/>
</g>
<path fill="#FFFFFF" d="M372.204,420.624h-7.006l-1.867-1.867c0.466-0.116,4.32-1.983,4.32-4.554h10.742l-1.168,1.284h-7.823v0.352
	h7.474l-1.285,1.284h-7.122v0.352h6.772l-1.402,1.284h-6.188v0.352h5.721L372.204,420.624z"/>
<path fill="#FFFFFF" d="M351.304,420.624h7.005l1.869-1.867c-0.468-0.116-4.32-1.983-4.32-4.554h-10.742l1.168,1.284h7.939v0.352
	h-7.472l1.283,1.284h7.122v0.352h-6.772l1.402,1.284h6.188v0.352h-5.721L351.304,420.624z"/>
<path fill="#FFFFFF" d="M356.675,421.792h2.218l1.401,6.422v0.584h-2.102v-0.933h-2.219l-0.466,0.933h-2.22L356.675,421.792z
	 M357.61,424.243l-1.168,2.22h1.283L357.61,424.243z"/>
<polygon fill="#FFFFFF" points="361.462,421.792 360.996,423.659 362.981,423.659 362.163,428.797 364.615,428.797 365.198,423.659 
	367.068,423.659 367.417,421.792 "/>
<path fill="#FFFFFF" d="M369.869,421.792h2.219l1.401,6.422v0.584h-2.102v-0.933h-2.219l-0.468,0.933h-2.218L369.869,421.792z
	 M370.92,424.243l-1.167,2.22h1.283L370.92,424.243z"/>
<polygon fill="#FFFFFF" points="351.188,421.792 349.786,428.797 352.005,428.797 353.405,421.792 "/>
<path fill="#FFFFFF" d="M301.679,414.554h6.071c-0.817-1.751-2.102-3.154-3.853-4.438c-0.817,0.816-1.869,1.519-2.921,2.103
	C301.211,412.918,301.445,413.734,301.679,414.554"/>
<path fill="#FFFFFF" d="M294.789,413.854v0.7h6.188c-0.116-0.7-0.35-1.403-0.583-1.987
	C298.642,413.27,296.774,413.734,294.789,413.854"/>
<path fill="#FFFFFF" d="M294.789,413.151c1.867,0,3.736-0.465,5.254-1.168c-1.167-2.567-3.035-4.203-5.138-4.436h-0.116V413.151z"/>
<path fill="#FFFFFF" d="M300.627,411.635c0.934-0.468,1.869-1.167,2.569-1.869c-1.636-1.05-3.619-1.751-5.838-2.102
	C298.76,408.48,299.81,409.883,300.627,411.635"/>
<path fill="#FFFFFF" d="M294.089,407.43c-0.118,0-0.234,0-0.352,0c-2.101,0.233-3.853,1.985-5.021,4.437
	c1.636,0.819,3.387,1.284,5.372,1.284V407.43L294.089,407.43z"/>
<path fill="#FFFFFF" d="M291.286,407.78c-2.102,0.352-3.971,1.052-5.604,2.103c0.7,0.7,1.518,1.284,2.452,1.751
	C288.951,409.883,290.001,408.598,291.286,407.78"/>
<path fill="#FFFFFF" d="M285.097,410.232c-1.751,1.167-3.035,2.687-3.853,4.322h5.838c0.234-0.819,0.468-1.635,0.702-2.451
	C286.85,411.635,285.914,410.932,285.097,410.232"/>
<path fill="#FFFFFF" d="M294.089,413.854c-1.985,0-3.97-0.584-5.605-1.287c-0.234,0.703-0.466,1.403-0.584,2.103h6.189V413.854z"/>
<path fill="#FFFFFF" d="M294.439,413.151c-0.118,0-0.234,0-0.35,0v0.703c0.116,0,0.232,0,0.35,0c0.116,0,0.234,0,0.234,0v-0.703
	C294.673,413.151,294.555,413.151,294.439,413.151"/>
<path fill="#FFFFFF" d="M300.977,412.218c-0.116-0.235-0.116-0.352-0.231-0.583c-0.234,0.116-0.468,0.232-0.584,0.348
	c0.116,0.235,0.116,0.352,0.232,0.584C300.511,412.451,300.745,412.334,300.977,412.218"/>
<path fill="#FFFFFF" d="M288.134,411.515c-0.116,0.236-0.234,0.352-0.234,0.584c0.234,0.119,0.468,0.235,0.584,0.352
	c0.118-0.232,0.118-0.352,0.233-0.584C288.601,411.751,288.367,411.635,288.134,411.515"/>
<path fill="#FFFFFF" d="M287.082,421.443h-5.838c0.818,1.752,2.102,3.151,3.853,4.319c0.817-0.7,1.753-1.4,2.687-1.983
	C287.55,423.076,287.316,422.259,287.082,421.443"/>
<path fill="#FFFFFF" d="M294.089,421.443h-6.306c0.116,0.7,0.35,1.4,0.7,2.101c1.635-0.816,3.62-1.284,5.605-1.284V421.443z"/>
<path fill="#FFFFFF" d="M294.089,422.843c-1.869,0-3.736,0.468-5.372,1.283c1.052,2.336,2.803,3.971,4.671,4.322
	c0.233,0,0.467,0,0.701,0V422.843z"/>
<path fill="#FFFFFF" d="M288.134,424.478c-0.818,0.468-1.635,1.052-2.335,1.752c1.518,0.936,3.387,1.635,5.488,1.983
	C290.001,427.397,288.951,426.114,288.134,424.478"/>
<path fill="#FFFFFF" d="M301.679,421.443c-0.234,0.816-0.468,1.633-0.702,2.336c1.052,0.583,1.985,1.283,2.919,2.1
	c1.753-1.168,3.037-2.684,3.854-4.436H301.679z"/>
<path fill="#FFFFFF" d="M294.789,422.259c1.985,0,3.853,0.468,5.488,1.284c0.233-0.584,0.468-1.284,0.583-1.984h-6.188v0.7H294.789z
	"/>
<path fill="#FFFFFF" d="M297.474,428.333c2.103-0.352,4.086-1.051,5.722-2.103c-0.818-0.7-1.636-1.284-2.569-1.868
	C299.927,426.114,298.76,427.397,297.474,428.333"/>
<path fill="#FFFFFF" d="M294.789,428.565c0.116,0,0.35,0,0.468,0c1.983-0.352,3.736-2.103,4.786-4.438
	c-1.634-0.699-3.387-1.167-5.254-1.167V428.565z"/>
<path fill="#FFFFFF" d="M294.089,422.259v0.7c0.116,0,0.232,0,0.35,0c0.116,0,0.234,0,0.234,0v-0.7c-0.118,0-0.234,0-0.234,0
	C294.322,422.259,294.205,422.259,294.089,422.259"/>
<path fill="#FFFFFF" d="M287.9,423.895c0.118,0.231,0.118,0.348,0.234,0.583c0.234-0.116,0.468-0.235,0.583-0.352
	c-0.116-0.231-0.233-0.348-0.233-0.583C288.25,423.659,288.134,423.779,287.9,423.895"/>
<path fill="#FFFFFF" d="M300.043,424.126c0.234,0.116,0.468,0.235,0.584,0.352c0.118-0.235,0.233-0.352,0.233-0.583
	c-0.233-0.116-0.467-0.236-0.583-0.352C300.161,423.659,300.161,423.895,300.043,424.126"/>
<path fill="#FFFFFF" d="M285.097,415.021l3.037,5.838h-1.635l-0.816-1.52h-2.453l-0.818,1.52h-1.05l3.151-5.838H285.097z
	 M283.463,418.756h1.985l-0.936-1.867L283.463,418.756z"/>
<polygon fill="#FFFFFF" points="288.484,415.138 289.417,415.138 293.154,418.756 293.154,415.138 294.089,415.138 294.089,420.975 
	293.506,420.975 289.417,416.889 289.417,420.86 288.484,420.86 "/>
<polygon fill="#FFFFFF" points="296.191,415.138 298.409,419.108 300.394,415.138 301.328,415.138 298.409,420.975 297.708,420.975 
	294.555,415.138 "/>
<g>
	<path fill="#FFFFFF" d="M301.795,415.138h2.452c0.467,0,0.818,0,1.05,0.116c0.352,0.116,0.584,0.232,0.818,0.352
		c0.233,0.116,0.35,0.349,0.468,0.465c0.116,0.235,0.116,0.352,0.116,0.583c0,0.12,0,0.352-0.116,0.468
		c-0.118,0.116-0.118,0.235-0.351,0.352c-0.117,0.116-0.233,0.232-0.468,0.349c-0.233,0.119-0.35,0.119-0.583,0.235l2.335,2.683
		h-1.752l-2.219-2.567h-0.232v2.567h-1.635v-5.602H301.795z M303.197,417.821h0.35c0.234,0,0.35,0,0.584-0.116
		c0.117,0,0.35-0.116,0.468-0.232c0.116-0.116,0.233-0.235,0.233-0.352c0.116-0.116,0.116-0.232,0.116-0.468
		c0-0.116,0-0.232-0.116-0.464c0-0.119-0.117-0.235-0.233-0.352c-0.118-0.116-0.234-0.116-0.351-0.232
		c-0.117,0-0.233-0.119-0.467-0.119h-0.7v2.335H303.197z"/>
	<path fill="#FFFFFF" d="M295.257,432.536c0,0.468-0.118,0.932-0.468,1.283c-0.234,0.352-0.584,0.468-1.052,0.468
		c-0.466,0-0.934-0.235-1.167-0.468c-0.232-0.352-0.35-0.815-0.35-1.399s0.118-1.052,0.468-1.403c0.234-0.348,0.7-0.468,1.167-0.468
		c0.466,0,0.818,0.235,1.05,0.584C295.139,431.6,295.257,431.952,295.257,432.536 M294.789,432.536c0-0.468-0.116-0.7-0.234-1.052
		c-0.116-0.232-0.35-0.468-0.7-0.468c-0.35,0-0.583,0.116-0.817,0.352c-0.234,0.232-0.234,0.584-0.234,1.052
		c0,0.933,0.35,1.399,1.051,1.399c0.35,0,0.584-0.115,0.7-0.352C294.673,433.352,294.789,433.003,294.789,432.536"/>
</g>
<g>
	<path fill="#FFFFFF" d="M290.353,430.317l-0.234,1.519c0,0.232,0,0.465,0,0.584c0.116,0.116,0.234,0.232,0.35,0.232
		c0.116,0,0.234,0,0.35,0c0.118,0,0.234-0.116,0.35-0.232l0.352-1.987l0.466,0.116l-0.466,2.571h-0.352l-0.116-0.352
		c-0.234,0.235-0.468,0.352-0.818,0.235c-0.583-0.119-0.817-0.468-0.7-1.168l0.234-1.635L290.353,430.317z"/>
	<path fill="#FFFFFF" d="M287.666,429.733v0.232c0.234-0.116,0.468-0.116,0.702,0c0.35,0.119,0.583,0.235,0.7,0.583
		c0.118,0.235,0.118,0.584,0,0.936c-0.116,0.352-0.35,0.7-0.583,0.816c-0.35,0.235-0.584,0.235-0.934,0.119
		c-0.234-0.119-0.468-0.235-0.583-0.352l-0.35,1.168l-0.468-0.116l1.051-3.503L287.666,429.733z M287.082,431.6
		c0.118,0.235,0.234,0.352,0.352,0.352c0.232,0.116,0.466,0,0.7-0.116c0.234-0.119,0.35-0.352,0.468-0.584
		c0.232-0.583,0-0.935-0.584-1.167c-0.118,0-0.118,0-0.234,0c-0.118,0-0.234,0-0.234,0.116L287.082,431.6z"/>
	<path fill="#FFFFFF" d="M284.163,429.617l1.751,0.815c0.118-0.231,0.118-0.583,0.118-0.699c-0.118-0.232-0.234-0.352-0.468-0.468
		s-0.466-0.116-0.7-0.116v-0.352c0.116,0,0.234,0,0.35,0c0.234,0,0.35,0.119,0.583,0.119c0.35,0.116,0.468,0.349,0.584,0.7
		c0.116,0.349,0.116,0.7-0.116,1.052c-0.234,0.348-0.468,0.699-0.817,0.815c-0.352,0.116-0.584,0.116-0.936,0
		c-0.35-0.116-0.584-0.352-0.7-0.7c-0.116-0.235-0.116-0.583,0-0.818C284.047,429.733,284.163,429.733,284.163,429.617
		 M284.865,431.016c0.234,0.116,0.35,0.116,0.584,0c0.116-0.116,0.35-0.116,0.35-0.348l-1.285-0.584
		c-0.116,0.116-0.116,0.348,0,0.464C284.513,430.784,284.631,430.9,284.865,431.016"/>
	<path fill="#FFFFFF" d="M282.062,429.381c0,0.119,0.116,0.235,0.234,0.235c0.116,0.116,0.35,0.116,0.466,0
		c0.234-0.116,0.352-0.235,0.468-0.352l0.817-1.284l0.35,0.232l-1.401,2.219l-0.35-0.231l0.234-0.352
		c-0.35,0.235-0.583,0.235-0.934,0c-0.118,0-0.118-0.116-0.234-0.232L282.062,429.381z"/>
	<path fill="#FFFFFF" d="M281.594,426.23l-0.934,1.167c-0.234,0.232-0.234,0.352-0.234,0.584c0,0.116,0.118,0.232,0.234,0.352
		c0.118,0.116,0.233,0.116,0.35,0.116c0.118,0,0.234,0,0.352,0l1.284-1.519l0.35,0.352l-1.634,1.983l-0.234-0.232l0.116-0.352
		c-0.234,0.116-0.583,0-0.817-0.232c-0.466-0.352-0.466-0.819,0-1.403l1.051-1.283L281.594,426.23z"/>
	<path fill="#FFFFFF" d="M278.443,424.71l1.167,1.403c0.232-0.235,0.35-0.468,0.35-0.7c0-0.235,0-0.352-0.234-0.584
		c-0.116-0.235-0.35-0.352-0.583-0.352l0.116-0.352c0.118,0,0.234,0,0.352,0.12c0.116,0.115,0.35,0.231,0.466,0.464
		c0.234,0.235,0.35,0.584,0.234,0.819c0,0.349-0.234,0.7-0.468,0.933c-0.35,0.235-0.7,0.352-1.05,0.352s-0.584-0.116-0.818-0.468
		c-0.234-0.232-0.35-0.584-0.35-0.933c0-0.235,0.116-0.584,0.466-0.703C278.325,424.83,278.325,424.71,278.443,424.71
		 M278.443,426.23c0.116,0.116,0.35,0.232,0.466,0.232c0.234,0,0.35,0,0.467-0.116l-0.934-1.168
		c-0.118,0.116-0.234,0.235-0.234,0.468S278.209,426.114,278.443,426.23"/>
</g>
<g>
	<path fill="#FFFFFF" d="M277.857,420.975l-1.518,0.7c-0.35,0.116-0.466,0.468-0.35,0.7c0,0.116,0.116,0.235,0.234,0.235
		c0.116,0.116,0.234,0.116,0.35,0.116l1.751-0.819l0.234,0.468l-1.751,0.819c-0.118,0-0.234,0.116-0.234,0.232s0,0.231,0.116,0.352
		c0,0.116,0.118,0.116,0.234,0.231c0.118,0.116,0.234,0.116,0.35,0.116l1.753-0.815l0.232,0.468l-2.335,1.051l-0.116-0.235
		l0.234-0.232c-0.234-0.119-0.468-0.235-0.584-0.467c-0.118-0.352-0.118-0.584,0-0.819c-0.118,0-0.234-0.116-0.352-0.116
		c-0.116-0.116-0.232-0.232-0.232-0.349c-0.118-0.235-0.118-0.468,0-0.703c0.116-0.232,0.232-0.349,0.583-0.465l1.634-0.703
		L277.857,420.975z"/>
	<path fill="#FFFFFF" d="M276.223,418.057l0.234,1.868c0.35,0,0.584-0.116,0.7-0.352c0.116-0.116,0.234-0.349,0.116-0.584
		c0-0.232-0.116-0.464-0.35-0.584l0.35-0.232c0.118,0.116,0.118,0.116,0.233,0.352c0.118,0.232,0.118,0.348,0.118,0.583
		c0,0.349,0,0.584-0.234,0.816s-0.584,0.468-0.934,0.468c-0.468,0-0.817,0-1.051-0.235c-0.234-0.232-0.35-0.465-0.468-0.816
		c0-0.352,0-0.7,0.234-0.936c0.234-0.232,0.468-0.348,0.817-0.348C275.99,418.057,276.106,418.057,276.223,418.057 M275.29,419.224
		c0,0.232,0.116,0.349,0.232,0.468c0.118,0.116,0.352,0.232,0.467,0.116l-0.116-1.403c-0.234,0-0.352,0.12-0.468,0.235
		C275.29,418.873,275.29,419.108,275.29,419.224"/>
</g>
<g>
	<path fill="#FFFFFF" d="M275.522,415.954c-0.116,0.116-0.116,0.235-0.116,0.352s0,0.348,0.234,0.468
		c0.116,0.116,0.35,0.232,0.583,0.232l1.518,0.116v0.468l-2.569-0.232v-0.467h0.468c-0.35-0.236-0.468-0.468-0.35-0.819
		c0-0.116,0-0.232,0.116-0.349L275.522,415.954z"/>
	<path fill="#FFFFFF" d="M277.507,415.837l-0.35-0.232c0.234-0.235,0.35-0.352,0.468-0.583c0.116-0.235,0-0.468-0.234-0.468
		c-0.118,0-0.35,0-0.584,0.232c-0.118,0.235-0.234,0.352-0.35,0.352c-0.118,0-0.118,0.116-0.234,0.116c-0.118,0-0.118,0-0.234,0.116
		c-0.116,0-0.116,0-0.233,0c-0.234-0.116-0.35-0.232-0.466-0.348c-0.118-0.235-0.118-0.352,0-0.584c0-0.235,0.232-0.352,0.35-0.583
		l0.35,0.232c-0.233,0.116-0.35,0.352-0.35,0.468s0,0.232,0,0.348c0,0.12,0.116,0.12,0.116,0.12c0.118,0,0.35,0,0.467-0.12
		l0.234-0.232c0.116-0.116,0.35-0.232,0.466-0.352c0.118,0,0.35,0,0.468,0c0.234,0.119,0.35,0.235,0.466,0.352
		c0.118,0.232,0.118,0.468,0,0.7C277.857,415.486,277.741,415.721,277.507,415.837"/>
	<path fill="#FFFFFF" d="M276.223,410.349c0-0.117,0.116-0.117,0.234-0.117c0.116,0,0.116,0,0.232,0
		c0.118,0,0.118,0.117,0.118,0.235c0,0.116,0,0.116,0,0.232c0,0.116-0.118,0.116-0.234,0.116s-0.116,0-0.234,0
		c-0.116,0-0.116-0.116-0.116-0.232C276.106,410.467,276.106,410.467,276.223,410.349 M279.143,412.567l-1.869-1.167l-0.232,0.352
		l-0.352-0.236l0.468-0.7l2.219,1.403L279.143,412.567z"/>
	<path fill="#FFFFFF" d="M280.778,410.349l-1.168-1.05c-0.234-0.235-0.352-0.235-0.467-0.352c-0.116,0-0.234,0.116-0.35,0.234
		c-0.118,0.118-0.118,0.234-0.118,0.35s0,0.234,0,0.352l1.519,1.284l-0.352,0.348l-1.985-1.75l0.234-0.234l0.352,0.116
		c-0.118-0.232,0-0.584,0.232-0.816c0.352-0.468,0.817-0.468,1.401,0l1.167,1.051L280.778,410.349z"/>
	<path fill="#FFFFFF" d="M282.529,406.146c-0.118,0-0.233,0-0.352,0.117c-0.116,0.117-0.232,0.233-0.232,0.467s0,0.35,0.116,0.584
		l0.817,1.285l-0.35,0.234l-1.519-2.219l0.352-0.233l0.232,0.35c0-0.35,0.118-0.583,0.352-0.817c0.116,0,0.232-0.117,0.35-0.117
		L282.529,406.146z"/>
	<path fill="#FFFFFF" d="M285.448,405.679l-1.636,0.816c0.116,0.234,0.35,0.468,0.584,0.468c0.234,0.116,0.35,0,0.584-0.117
		c0.234-0.117,0.35-0.234,0.468-0.467l0.35,0.233c0,0.117-0.116,0.234-0.234,0.351c-0.116,0.116-0.35,0.233-0.467,0.35
		c-0.35,0.117-0.584,0.234-0.934,0.117c-0.35-0.117-0.583-0.351-0.817-0.701c-0.232-0.35-0.232-0.701-0.116-1.05
		c0.116-0.351,0.35-0.584,0.583-0.701c0.35-0.117,0.7-0.233,0.934-0.117s0.468,0.234,0.583,0.584
		C285.448,405.445,285.448,405.562,285.448,405.679 M284.047,405.211c-0.234,0.117-0.35,0.234-0.35,0.468
		c-0.118,0.233-0.118,0.35,0,0.583l1.284-0.701c-0.116-0.117-0.234-0.234-0.35-0.351
		C284.397,405.095,284.163,405.095,284.047,405.211"/>
	<path fill="#FFFFFF" d="M286.732,406.496l-0.818-2.101l-0.35,0.117l-0.116-0.351l0.817-0.35l0.934,2.452L286.732,406.496z
		 M285.682,403.11c0.116,0,0.116,0,0.232,0c0.118,0,0.118,0.117,0.118,0.117c0,0.116,0,0.116,0,0.233
		c0,0.117-0.118,0.117-0.118,0.117c-0.116,0-0.116,0-0.232,0c-0.118,0-0.118-0.117-0.118-0.117c0-0.117,0-0.117,0-0.233
		C285.564,403.11,285.564,403.11,285.682,403.11"/>
	<polygon fill="#FFFFFF" points="288.134,405.562 289.535,405.211 289.651,405.679 287.55,406.263 287.433,406.146 288.367,403.694 
		286.966,404.043 286.85,403.694 288.951,403.11 288.951,403.227 	"/>
</g>
<g>
	<path fill="#FFFFFF" d="M291.986,403.927l-1.867,0.234c0,0.35,0.116,0.467,0.35,0.701c0.116,0.117,0.35,0.117,0.584,0.117
		s0.468-0.117,0.584-0.351l0.234,0.351c-0.116,0.117-0.116,0.117-0.35,0.233c-0.234,0.117-0.35,0.117-0.584,0.234
		c-0.352,0-0.583,0-0.935-0.234c-0.232-0.233-0.466-0.467-0.584-0.934c-0.116-0.467,0-0.817,0.234-1.05
		c0.234-0.234,0.468-0.468,0.817-0.468c0.35,0,0.702,0,0.934,0.234c0.234,0.117,0.352,0.467,0.468,0.701
		C291.986,403.811,291.986,403.927,291.986,403.927 M290.702,403.11c-0.234,0-0.35,0.117-0.468,0.233
		c-0.116,0.117-0.116,0.351-0.116,0.468l1.401-0.234c0-0.234-0.118-0.35-0.234-0.467C291.052,403.11,290.936,403.11,290.702,403.11"
		/>
	<path fill="#FFFFFF" d="M294.205,405.095v-1.519c0-0.234,0-0.467-0.116-0.583c-0.118-0.117-0.234-0.117-0.468-0.117
		c-0.116,0-0.233,0-0.35,0.117c-0.118,0.117-0.234,0.117-0.234,0.234l0.116,1.984h-0.466l-0.118-2.568h0.352l0.116,0.35
		c0.116-0.234,0.35-0.35,0.7-0.467c0.584,0,0.818,0.35,0.936,1.051v1.635L294.205,405.095z"/>
</g>
<g>
	<path fill="#FFFFFF" d="M413.19,430.9c-2.569,1.4-5.604,2.22-8.757,2.22c-9.925,0-17.981-8.058-17.981-17.982
		c0-4.789,1.867-9.109,4.903-12.262l2.218,2.219c-2.801,2.919-4.553,6.888-4.553,11.326c0,8.873,7.239,16.23,16.23,16.23
		c2.802,0,5.37-0.7,7.706-1.983L413.19,430.9z"/>
	<path fill="#FFFFFF" d="M398.244,401.591c-0.233,0.234-0.352,0.351-0.817,0.584c-0.817,0.468-1.869,0.584-2.569-0.467
		c-0.583-1.051-0.233-1.985,0.818-2.569c0.35-0.233,0.583-0.233,0.934-0.35l0.35,0.701c-0.35,0-0.584,0.117-0.934,0.234
		c-0.584,0.35-0.701,0.934-0.35,1.518c0.35,0.583,0.934,0.701,1.518,0.35c0.233-0.116,0.466-0.35,0.699-0.583L398.244,401.591z"/>
	<path fill="#FFFFFF" d="M400.113,400.892c0-0.117-0.116-0.234-0.116-0.351l0,0c-0.118,0.351-0.234,0.583-0.584,0.701
		c-0.468,0.117-0.936,0.117-1.169-0.467c-0.232-0.701,0.468-1.051,0.936-1.285c0.115,0,0.233-0.117,0.35-0.117
		c-0.118-0.35-0.35-0.35-0.701-0.234c-0.232,0.117-0.467,0.234-0.7,0.468l-0.234-0.583c0.234-0.234,0.584-0.351,0.935-0.468
		c0.583-0.233,1.285-0.116,1.519,0.583l0.351,0.935c0.115,0.234,0.115,0.35,0.233,0.584L400.113,400.892z M399.412,400.658
		c0.35-0.117,0.466-0.467,0.35-0.701c-0.117,0-0.233,0.117-0.35,0.117c-0.233,0.117-0.468,0.234-0.352,0.467
		C398.945,400.658,399.179,400.658,399.412,400.658"/>
	
		<rect x="401.004" y="396.803" transform="matrix(-0.9795 0.2014 -0.2014 -0.9795 875.0106 708.179)" fill="#FFFFFF" width="0.933" height="3.619"/>
	<path fill="#FFFFFF" d="M404.666,400.191c0-0.117,0-0.234,0-0.351l0,0c-0.233,0.351-0.468,0.467-0.817,0.467
		c-0.468,0-0.934-0.234-1.052-0.701c0-0.817,0.818-0.935,1.286-0.935c0.115,0,0.35,0,0.466,0c0-0.35-0.351-0.467-0.584-0.35
		c-0.233,0-0.584,0.117-0.817,0.233v-0.584c0.352-0.116,0.584-0.233,1.051-0.233c0.7,0,1.284,0.233,1.284,0.934l0.118,0.935
		c0,0.233,0,0.35,0.115,0.584H404.666z M403.965,399.607c0.35,0,0.468-0.351,0.468-0.583c-0.118,0-0.234,0-0.35,0
		c-0.352,0-0.584,0.116-0.468,0.35C403.615,399.607,403.732,399.724,403.965,399.607"/>
	<path fill="#FFFFFF" d="M406.3,397.505l0.818,0.117l-0.116,0.467l0,0c0.233-0.35,0.583-0.467,1.05-0.35
		c0.352,0.116,0.584,0.233,0.701,0.584c0.234-0.351,0.584-0.351,0.934-0.351c0.7,0.117,0.818,0.584,0.7,1.285l-0.232,1.519
		l-0.817-0.117l0.233-1.401c0-0.233,0-0.467-0.233-0.584c-0.35,0-0.584,0.117-0.584,0.701l-0.233,1.05l-0.818-0.116l0.234-1.401
		c0-0.234,0-0.467-0.234-0.583c-0.35,0-0.583,0.116-0.583,0.701l-0.234,1.05l-0.817-0.117L406.3,397.505z"/>
	<path fill="#FFFFFF" d="M411.556,398.672l0.816,0.351l-0.934,2.335l-0.818-0.351L411.556,398.672z M412.49,398.672l-0.817-0.35
		l0.234-0.584l0.817,0.35L412.49,398.672z"/>
	<path fill="#FFFFFF" d="M413.073,399.256l0.466,0.234l0.234-0.467l0.934,0.116l-0.35,0.701l0.584,0.233l-0.234,0.584l-0.584-0.234
		l-0.466,0.818c-0.118,0.234-0.118,0.467,0.116,0.583c0.117,0,0.117,0.117,0.233,0.117l-0.233,0.467
		c-0.116-0.117-0.35-0.117-0.466-0.234c-0.702-0.35-0.702-0.817-0.468-1.284l0.468-0.935l-0.468-0.233L413.073,399.256z"/>
	<path fill="#FFFFFF" d="M415.175,402.292c-0.116,0.351,0,0.583,0.35,0.817c0.234,0.117,0.468,0.233,0.702,0.35l-0.352,0.467
		c-0.351-0.116-0.584-0.233-0.816-0.467c-0.701-0.467-0.936-1.285-0.352-1.984c0.468-0.701,1.285-0.701,1.869-0.234
		c0.7,0.583,0.584,1.284,0.116,1.868l-0.116,0.117L415.175,402.292z M416.227,402.526c0.231-0.233,0.231-0.467-0.118-0.701
		c-0.233-0.234-0.466-0.117-0.7,0.117L416.227,402.526z"/>
	<path fill="#FFFFFF" d="M418.094,402.759l0.584,0.583l-1.752,1.752l-0.583-0.584L418.094,402.759z M419.028,403.11l-0.584-0.584
		l0.468-0.467l0.584,0.584L419.028,403.11z"/>
	<path fill="#FFFFFF" d="M419.262,403.927l0.35,0.351l0.468-0.351l0.7,0.468l-0.7,0.467l0.35,0.467l-0.466,0.351l-0.352-0.468
		l-0.7,0.583c-0.233,0.234-0.35,0.351-0.116,0.584c0,0.117,0.116,0.117,0.232,0.234l-0.466,0.351
		c-0.118-0.117-0.234-0.234-0.35-0.351c-0.468-0.584-0.352-0.934,0.115-1.401l0.818-0.584l-0.351-0.35L419.262,403.927z"/>
	<path fill="#FFFFFF" d="M419.963,407.547c-0.233,0.233-0.233,0.467-0.118,0.933c0.118,0.235,0.351,0.467,0.584,0.583l-0.584,0.352
		c-0.233-0.234-0.466-0.468-0.583-0.7c-0.467-0.702-0.351-1.519,0.468-1.986c0.699-0.467,1.401-0.117,1.867,0.584
		c0.468,0.818,0,1.402-0.584,1.868l-0.116,0.118L419.963,407.547z M420.897,408.132c0.234-0.118,0.351-0.352,0.234-0.702
		c-0.118-0.233-0.468-0.351-0.702-0.117L420.897,408.132z"/>
	<path fill="#FFFFFF" d="M422.531,409.182l0.234,0.818l-0.467,0.116l0,0c0.351,0,0.7,0.352,0.818,0.7
		c0.231,0.7-0.118,1.051-0.702,1.287l-1.518,0.464l-0.233-0.816l1.167-0.352c0.468-0.116,0.584-0.349,0.468-0.584
		c-0.117-0.348-0.468-0.466-0.936-0.232l-1.05,0.348l-0.233-0.816L422.531,409.182z"/>
	<path fill="#FFFFFF" d="M422.998,413.035l-0.116-0.468l0.584-0.116l0.116,0.584h0.117c0.7-0.116,1.05,0.235,1.168,0.935
		c0,0.232,0,0.349,0,0.468h-0.584c0-0.119,0-0.119,0-0.235c0-0.232-0.233-0.232-0.468-0.232h-0.116l0.116,0.584l-0.584,0.116
		l-0.117-0.584l-1.867,0.352l-0.116-0.819L422.998,413.035z"/>
	<path fill="#FFFFFF" d="M422.649,415.021c0.817,0,1.283,0.7,1.283,1.516c0,0.819-0.466,1.519-1.401,1.519
		c-0.816,0-1.283-0.7-1.283-1.519C421.247,415.605,421.83,415.021,422.649,415.021 M422.649,417.005c0.35,0,0.699-0.116,0.699-0.583
		c0-0.352-0.35-0.584-0.699-0.584c-0.351,0-0.702,0.116-0.702,0.584S422.181,417.005,422.649,417.005"/>
	<path fill="#FFFFFF" d="M423.816,418.873l-0.116,0.819l-0.468-0.119l0,0c0.351,0.235,0.468,0.584,0.351,1.051
		c-0.116,0.7-0.7,0.819-1.168,0.7l-1.518-0.349l0.234-0.818l1.167,0.235c0.467,0.116,0.7,0,0.7-0.235
		c0.118-0.349-0.116-0.584-0.7-0.7l-1.051-0.232l0.233-0.819L423.816,418.873z"/>
	<path fill="#FFFFFF" d="M419.495,423.895l0.35-0.7l0.468,0.232l0,0c-0.233-0.232-0.233-0.584-0.117-1.052
		c0.352-0.7,1.052-0.816,1.751-0.584c0.584,0.235,1.052,0.819,0.702,1.52c-0.118,0.348-0.351,0.584-0.702,0.699l0,0l1.285,0.584
		l-0.35,0.819L419.495,423.895z M420.663,422.843c-0.116,0.232,0,0.584,0.35,0.7c0.35,0.115,0.701,0.115,0.817-0.232
		c0.116-0.352-0.116-0.584-0.35-0.7C421.131,422.492,420.78,422.611,420.663,422.843"/>
	<path fill="#FFFFFF" d="M419.845,424.71c-0.233,0.119-0.466,0.352-0.583,0.584c-0.116,0.119-0.116,0.352,0,0.468
		c0.35,0.235,0.817-0.933,1.518-0.468c0.468,0.352,0.352,0.936,0.117,1.403c-0.117,0.232-0.35,0.468-0.584,0.699l-0.468-0.352
		c0.234-0.115,0.351-0.348,0.468-0.464c0.116-0.119,0.234-0.352,0.116-0.468c-0.35-0.235-0.817,1.052-1.634,0.584
		c-0.583-0.352-0.352-0.936-0.117-1.52c0.233-0.349,0.35-0.584,0.584-0.7L419.845,424.71z"/>
	<path fill="#FFFFFF" d="M388.668,436.155c0.584,0,0.817,0.352,0.817,0.815c0,0.468-0.233,0.819-0.817,0.819
		s-0.815-0.352-0.815-0.819C387.853,436.506,388.084,436.155,388.668,436.155 M388.668,437.557c0.234,0,0.352-0.235,0.352-0.468
		c0-0.235-0.117-0.467-0.352-0.467c-0.232,0-0.35,0.231-0.35,0.467C388.202,437.322,388.319,437.557,388.668,437.557"/>
	<path fill="#FFFFFF" d="M389.72,436.623h0.35v0.231l0,0c0.118-0.116,0.234-0.231,0.468-0.231c0.351,0,0.466,0.348,0.466,0.583
		c0,0.349-0.231,0.7-0.583,0.7c-0.116,0-0.351,0-0.351-0.232l0,0v0.7h-0.466v-1.751H389.72z M390.304,436.97
		c-0.116,0-0.234,0.119-0.234,0.352c0,0.235,0.118,0.352,0.234,0.352s0.233-0.119,0.233-0.352
		C390.654,437.089,390.537,436.97,390.304,436.97"/>
	<path fill="#FFFFFF" d="M392.523,437.673c0,0.468-0.233,0.7-0.701,0.7c-0.234,0-0.351,0-0.467-0.116v-0.352
		c0.116,0.116,0.232,0.116,0.351,0.116c0.233,0,0.35-0.116,0.35-0.349v-0.116l0,0c-0.116,0.116-0.233,0.232-0.35,0.232
		c-0.351,0-0.584-0.232-0.584-0.584s0.116-0.583,0.584-0.583c0.233,0,0.35,0.115,0.466,0.231l0,0v-0.231h0.352V437.673
		L392.523,437.673z M391.939,437.557c0.116,0,0.232-0.119,0.232-0.352c0-0.116-0.116-0.235-0.232-0.235
		c-0.117,0-0.233,0.119-0.233,0.352C391.705,437.438,391.822,437.557,391.939,437.557"/>
	<path fill="#FFFFFF" d="M393.223,437.322c0,0.116,0.117,0.235,0.35,0.235c0.118,0,0.234,0,0.352-0.119v0.352
		c-0.117,0-0.233,0.116-0.468,0.116c-0.35,0-0.701-0.232-0.701-0.584s0.233-0.584,0.701-0.584s0.584,0.352,0.584,0.7v0.119h-0.817
		V437.322z M393.691,437.089c0-0.119-0.118-0.235-0.234-0.235c-0.117,0-0.233,0.116-0.233,0.235H393.691z"/>
	<path fill="#FFFFFF" d="M395.208,436.97h-0.116c-0.234,0-0.352,0.119-0.352,0.352v0.468h-0.466v-1.167h0.35v0.231l0,0
		c0.116-0.116,0.233-0.231,0.35-0.231h0.118L395.208,436.97z"/>
	<path fill="#FFFFFF" d="M395.442,436.623h0.466v1.167h-0.466V436.623z M395.907,436.386h-0.466v-0.348h0.466V436.386z"/>
	<path fill="#FFFFFF" d="M397.194,436.97c-0.118,0-0.118-0.116-0.234-0.116c-0.233,0-0.35,0.116-0.35,0.352
		c0,0.232,0.116,0.349,0.35,0.349c0.116,0,0.234,0,0.234-0.116v0.352c-0.118,0-0.234,0-0.351,0c-0.352,0-0.701-0.235-0.701-0.584
		c0-0.352,0.35-0.583,0.701-0.583c0.116,0,0.232,0,0.351,0.115V436.97z"/>
	<path fill="#FFFFFF" d="M397.427,436.155h0.466v0.699l0,0c0.118-0.116,0.234-0.231,0.351-0.231c0.352,0,0.468,0.231,0.468,0.467
		v0.7h-0.468v-0.584c0-0.235-0.116-0.352-0.232-0.352c-0.118,0-0.234,0.116-0.234,0.352v0.468h-0.35V436.155z"/>
	<path fill="#FFFFFF" d="M398.945,436.623h0.234v-0.236l0.466-0.115v0.352h0.233v0.348h-0.233v0.468c0,0.116,0,0.235,0.117,0.235
		h0.116v0.232c-0.116,0-0.116,0-0.233,0c-0.351,0-0.466-0.116-0.466-0.468v-0.468h-0.234V436.623z"/>
	<path fill="#FFFFFF" d="M402.098,437.79h-0.351v-0.235l0,0c0,0.119-0.233,0.235-0.468,0.235c-0.35,0-0.583-0.352-0.583-0.7
		c0-0.352,0.233-0.583,0.467-0.583c0.116,0,0.351,0,0.467,0.231l0,0v-0.699h0.468V437.79z M401.514,437.557
		c0.116,0,0.233-0.119,0.233-0.352c0-0.235-0.117-0.352-0.233-0.352c-0.118,0-0.234,0.12-0.234,0.352
		C401.163,437.438,401.28,437.557,401.514,437.557"/>
	<path fill="#FFFFFF" d="M402.331,437.206c0-0.352,0.35-0.583,0.7-0.583c0.35,0,0.7,0.231,0.7,0.583c0,0.349-0.351,0.584-0.7,0.584
		C402.681,437.906,402.331,437.673,402.331,437.206 M403.381,437.206c0-0.235-0.116-0.352-0.233-0.352
		c-0.232,0-0.232,0.116-0.232,0.352c0,0.232,0.116,0.349,0.232,0.349C403.265,437.557,403.381,437.438,403.381,437.206"/>
	<path fill="#FFFFFF" d="M403.965,437.206c0-0.352,0.35-0.583,0.701-0.583c0.351,0,0.7,0.231,0.7,0.583
		c0,0.349-0.35,0.584-0.7,0.584C404.315,437.906,403.965,437.673,403.965,437.206 M404.899,437.206c0-0.235-0.116-0.352-0.232-0.352
		c-0.233,0-0.233,0.116-0.233,0.352c0,0.232,0.116,0.349,0.233,0.349C404.899,437.557,404.899,437.438,404.899,437.206"/>
	<path fill="#FFFFFF" d="M406.418,436.97H406.3c-0.232,0-0.35,0.119-0.35,0.352v0.468h-0.35v-1.167h0.35v0.231l0,0
		c0.117-0.116,0.233-0.231,0.35-0.231h0.118V436.97z"/>
	<path fill="#FFFFFF" d="M407.936,436.271h0.584l0.583,1.635h-0.467l-0.116-0.349h-0.584l-0.116,0.349h-0.468L407.936,436.271z
		 M408.169,436.506L408.169,436.506l-0.233,0.583h0.35L408.169,436.506z"/>
	<polygon fill="#FFFFFF" points="409.337,436.271 409.803,436.271 410.387,437.322 410.387,437.322 410.387,436.271 
		410.855,436.271 410.855,437.79 410.271,437.79 409.687,436.738 409.687,436.738 409.687,437.79 409.337,437.79 	"/>
	<polygon fill="#FFFFFF" points="410.972,436.271 411.439,436.271 411.788,437.438 411.788,437.438 412.256,436.271 
		412.606,436.271 412.14,437.79 411.556,437.79 	"/>
	<path fill="#FFFFFF" d="M412.84,436.271h0.817c0.233,0,0.466,0.115,0.466,0.352c0,0.231-0.116,0.348-0.35,0.348l0,0
		c0.117,0,0.117,0.119,0.233,0.352l0.116,0.468h-0.35l-0.116-0.235c-0.118-0.232-0.118-0.349-0.35-0.349h-0.118v0.584h-0.466v-1.519
		H412.84z M413.308,436.854L413.308,436.854c0.231,0,0.466,0,0.466-0.231c0-0.116-0.116-0.236-0.35-0.236h-0.116V436.854z"/>
	<path fill="#FFFFFF" d="M415.525,437.322c0,0.116,0.118,0.235,0.351,0.235c0.117,0,0.233,0,0.352-0.119v0.352
		c-0.118,0-0.234,0.116-0.468,0.116c-0.351,0-0.7-0.232-0.7-0.584s0.232-0.584,0.7-0.584s0.584,0.352,0.584,0.7v0.119h-0.818
		V437.322z M415.992,437.089c0-0.119-0.117-0.235-0.233-0.235s-0.234,0.116-0.234,0.235H415.992z"/>
	<path fill="#FFFFFF" d="M416.693,436.623h0.35v0.231l0,0c0.118-0.116,0.234-0.231,0.468-0.231c0.351,0,0.468,0.231,0.468,0.467v0.7
		h-0.468v-0.584c0-0.235-0.116-0.352-0.233-0.352c-0.116,0-0.234,0.116-0.234,0.352v0.468h-0.466v-1.051H416.693z"/>
	<path fill="#FFFFFF" d="M419.028,437.438c0.118,0.119,0.234,0.119,0.468,0.119c0.116,0,0.234,0,0.234-0.119
		c0-0.349-0.818-0.116-0.818-0.7c0-0.352,0.351-0.467,0.7-0.467c0.118,0,0.352,0,0.468,0.115v0.352c-0.116,0-0.234-0.115-0.35-0.115
		c-0.118,0-0.234,0-0.234,0.115c0,0.232,0.817,0.116,0.817,0.7c0,0.468-0.35,0.584-0.701,0.584c-0.116,0-0.35,0-0.466-0.116
		L419.028,437.438z"/>
	<path fill="#FFFFFF" d="M421.947,437.79c-0.232,0.116-0.466,0.116-0.584,0.116c-0.466,0-0.934-0.232-0.934-0.816
		c0-0.583,0.468-0.818,1.052-0.818c0.116,0,0.35,0,0.466,0.115v0.352c-0.116-0.115-0.35-0.115-0.35-0.115
		c-0.35,0-0.584,0.115-0.584,0.467c0,0.349,0.234,0.465,0.584,0.465c0.117,0,0.117,0,0.117,0v-0.349h-0.233v-0.352h0.7v0.936
		H421.947z"/>
	<path fill="#FFFFFF" d="M422.298,436.271h0.816c0.233,0,0.468,0.115,0.468,0.352c0,0.231-0.116,0.348-0.351,0.348l0,0
		c0.116,0,0.116,0.119,0.234,0.352l0.116,0.468h-0.466l-0.118-0.235c-0.116-0.232-0.116-0.349-0.35-0.349h-0.118v0.584h-0.466
		v-1.519H422.298z M422.765,436.854L422.765,436.854c0.233,0,0.467,0,0.467-0.231c0-0.116-0.117-0.236-0.35-0.236h-0.117V436.854z"
		/>
	<path fill="#FFFFFF" d="M405.133,414.318l-7.706-6.771c2.102-2.102,4.671-3.27,7.706-3.27V414.318z"/>
	<path fill="#FFFFFF" d="M410.271,407.43c0.468-0.351,0.701-0.935,1.168-1.05c2.919,1.752,4.788,4.787,5.371,7.822l-1.751,1.167
		c-0.352-3.267-2.335-6.422-5.372-7.822c-0.116,0-0.35,0-0.35,0.116l0.116,0.935c-0.351,1.634-1.634,3.037-3.153,3.736l-0.116,0.116
		v-6.422C407.701,406.38,408.988,406.729,410.271,407.43"/>
	<path fill="#FFFFFF" d="M404.782,415.253c-0.817,0-1.283-0.7-2.102-0.467c-0.35,0.116-0.583,0.7-1.167,0.467
		c-0.934-0.352-0.702-1.399-1.401-1.983c-0.116-0.584,0.233-1.403-0.351-1.871c-0.817-0.468-1.167-1.284-1.285-2.1
		c-2.801,2.452-3.736,6.771-2.451,10.273c0.466,1.519,1.401,2.803,2.686,3.971c-3.387-2.452-4.787-6.187-4.203-10.393
		c0.35-1.984,1.168-3.735,2.567-5.371l7.941,7.006L404.782,415.253z"/>
	<path fill="#FFFFFF" d="M408.988,415.021c0.699,0.348,1.633,0.348,2.335,0.583c0.116,0.116,0.233,0.232,0.233,0.349h-5.372v-2.1
		C407.118,414.086,408.052,414.438,408.988,415.021"/>
	<path fill="#FFFFFF" d="M417.51,415.954h-2.451c0.7-0.584,1.518-1.167,2.335-1.516L417.51,415.954"/>
	<path fill="#FFFFFF" d="M411.556,416.653c-0.468,2.455-1.519,4.67-3.504,6.422c-0.584,0.468-1.284,0.819-1.984,0.583
		c-0.117-0.348,0-0.932,0.116-1.399c0.234-0.584,0.116-1.284,0.116-1.867c-0.934-1.052-1.634-2.335-0.934-3.739H411.556z"/>
	<path fill="#FFFFFF" d="M415.408,416.653c-0.117,3.739-1.751,7.357-5.138,9.225c-0.233-0.232-0.584-0.349-0.7-0.7
		c3.27-1.52,5.488-4.902,5.488-8.525H415.408z"/>
	<path fill="#FFFFFF" d="M404.083,422.959c-0.118,0.352,0.231,0.584,0.466,0.584c1.401,0.467,3.387,0,4.204,1.635l0.234,0.116
		c-1.168,0.584-2.569,0.819-4.205,0.819v1.283c-1.867,0-3.619-0.467-5.138-1.399l1.519-2.803
		C402.331,423.195,403.381,422.027,404.083,422.959"/>
</g>
<g>
	<g>
		<g>
			<path fill="#FFFFFF" d="M227.531,411.515v2.687c0,0.819-0.232,1.284-0.7,1.635c-0.35,0.232-0.934,0.468-1.635,0.468
				c-0.7,0-1.4-0.235-1.751-0.584c-0.466-0.352-0.583-0.819-0.583-1.519v-2.687h1.167v2.687c0,0.468,0,0.584,0.118,0.819
				c0.234,0.232,0.584,0.348,1.05,0.348c0.468,0,0.936-0.116,1.052-0.348c0.116-0.12,0.116-0.352,0.116-0.819v-2.687H227.531z"/>
			<path fill="#FFFFFF" d="M233.487,416.07l-1.167-1.516c-0.584-0.819-1.052-1.403-1.284-1.868c0,0.465,0,0.465,0,1.984v1.4h-1.167
				v-4.551h1.399l1.168,1.516c0.467,0.583,1.051,1.519,1.401,1.867c0-0.348,0-1.048,0-1.983v-1.403h1.167v4.555H233.487z"/>
			<path fill="#FFFFFF" d="M237.223,416.07v-4.555h1.167v4.555H237.223z"/>
			<path fill="#FFFFFF" d="M243.179,416.07h-1.167v-3.619h-1.635v-0.936h4.32v0.936h-1.635v3.619H243.179z"/>
			<path fill="#FFFFFF" d="M246.682,416.07v-4.555h4.203v0.936h-3.035v0.819h2.685v0.932h-2.685v1.051h3.035v0.936h-4.203V416.07z"
				/>
			<path fill="#FFFFFF" d="M253.104,411.515h2.335c0.818,0,1.284,0.12,1.751,0.352c0.584,0.352,0.934,1.052,0.934,1.868
				c0,0.819-0.35,1.519-0.934,1.871c-0.468,0.349-1.051,0.465-1.751,0.465h-2.335V411.515z M255.323,415.138
				c0.934,0,1.399-0.468,1.399-1.403c0-0.816-0.466-1.4-1.399-1.4h-1.168v2.687h1.168V415.138z"/>
			<path fill="#FFFFFF" d="M224.028,424.243v-3.967h-1.751v-0.584h4.205v0.584h-1.751v3.967H224.028z"/>
			<path fill="#FFFFFF" d="M229.4,424.243h-0.7v-4.551h2.567c1.052,0,1.52,0.465,1.52,1.283c0,0.468-0.234,0.816-0.702,1.052
				c0.468,0.232,0.584,0.465,0.584,1.517c0,0.467,0.118,0.583,0.233,0.583v0.116h-0.934c-0.118-0.232-0.118-0.348-0.118-0.932
				c0-0.819-0.232-1.052-0.934-1.052h-1.751v1.983H229.4z M231.152,421.675c0.233,0,0.467,0,0.583-0.116
				c0.234-0.116,0.35-0.352,0.35-0.584c0-0.235-0.116-0.467-0.35-0.583c-0.116-0.116-0.35-0.116-0.583-0.116H229.4v1.399H231.152z"
				/>
			<path fill="#FFFFFF" d="M236.406,422.959l-0.583,1.283h-0.818l2.103-4.551h0.816l2.103,4.551h-0.817l-0.584-1.283H236.406z
				 M237.573,420.392l-0.818,1.867h1.635L237.573,420.392z"/>
			<path fill="#FFFFFF" d="M243.295,424.243l-1.985-4.551h0.818l1.635,3.735l1.634-3.735h0.817l-2.101,4.551H243.295z"/>
			<path fill="#FFFFFF" d="M248.316,424.243v-4.551h3.736v0.584h-2.919v1.283h2.919v0.584h-2.919v1.4h3.153v0.583h-3.97V424.243z"/>
			<path fill="#FFFFFF" d="M254.621,424.243v-4.551h0.702v3.967h2.919v0.584H254.621z"/>
		</g>
	</g>
	<polygon fill="#FFFFFF" points="265.948,415.954 265.714,415.954 265.714,407.897 214.803,407.897 214.803,415.954 
		214.453,415.954 214.453,407.664 265.948,407.664 	"/>
	<polygon fill="#FFFFFF" points="265.948,428.097 214.453,428.097 214.453,419.692 214.803,419.692 214.803,427.749 
		265.714,427.749 265.714,419.692 265.948,419.692 	"/>
</g>
</svg>
